<?xml version="1.0"?>
<svg width="75" height="75" xmlns="http://www.w3.org/2000/svg" xmlns:svg="http://www.w3.org/2000/svg">
 <g class="layer">
  <title>Layer 1</title>
  <rect fill="#808080" fill-opacity="0.8" height="42" id="svg_1" rx="8" width="42" x="11" y="11"/>
  <rect fill="#808080" fill-opacity="0.2" height="64" id="svg_2" rx="12" transform="matrix(1 0 0 1 0 0)" width="64" x="-1" y="41"/>
  <path d="m42.9,31.31l-6.17,0c-0.05,-0.48 -0.17,-0.9 -0.36,-1.28c-0.18,-0.39 -0.44,-0.71 -0.76,-1c-0.32,-0.29 -0.72,-0.5 -1.18,-0.64c-0.45,-0.15 -0.98,-0.24 -1.55,-0.24c-1.03,0 -1.89,0.24 -2.59,0.69c-0.71,0.46 -1.23,1.12 -1.61,1.97c-0.36,0.86 -0.54,1.89 -0.54,3.09c0,1.27 0.19,2.34 0.55,3.2c0.37,0.84 0.91,1.49 1.61,1.93c0.71,0.42 1.54,0.63 2.53,0.63c0.57,0 1.07,-0.06 1.52,-0.19c0.44,-0.13 0.83,-0.32 1.16,-0.57c0.33,-0.25 0.59,-0.56 0.8,-0.9c0.22,-0.36 0.36,-0.76 0.44,-1.21l6.17,0.05c-0.06,0.88 -0.33,1.77 -0.8,2.69c-0.46,0.9 -1.12,1.73 -1.97,2.51c-0.83,0.76 -1.88,1.38 -3.11,1.84c-1.25,0.46 -2.68,0.7 -4.33,0.7c-2.06,0 -3.9,-0.42 -5.54,-1.22c-1.63,-0.82 -2.92,-2.02 -3.87,-3.61c-0.94,-1.58 -1.41,-3.53 -1.41,-5.82c0,-2.31 0.48,-4.25 1.44,-5.83c0.96,-1.58 2.27,-2.78 3.9,-3.59c1.63,-0.82 3.46,-1.22 5.47,-1.22c1.41,0 2.72,0.18 3.9,0.53c1.19,0.36 2.23,0.88 3.13,1.57c0.9,0.68 1.62,1.52 2.17,2.52c0.54,1 0.87,2.15 0.99,3.43zm11.43,12.96l3.69,-48.72" fill="black" fill-opacity="0.8" id="svg_3"/>
 </g>
</svg>